<?xml version="1.0" standalone="no"?><!DOCTYPE svg PUBLIC "-//W3C//DTD SVG 1.1//EN" "http://www.w3.org/Graphics/SVG/1.1/DTD/svg11.dtd"><svg t="1586949628807" class="icon" viewBox="0 0 1024 1024" version="1.1" xmlns="http://www.w3.org/2000/svg" p-id="31484" xmlns:xlink="http://www.w3.org/1999/xlink" width="48" height="48"><defs><style type="text/css"></style></defs><path d="M791.582118 463.269647a29.696 29.696 0 0 0-25.750589-15.179294 29.816471 29.816471 0 0 0-25.72047 15.058823c-2.680471-0.692706-4.336941-0.060235-4.336941 4.48753v293.044706c0 21.534118-17.980235 39.062588-40.026353 39.062588H235.580235c-22.046118 0-40.026353-17.528471-40.026353-39.062588V233.200941c0-21.564235 17.950118-39.062588 40.026353-39.062588H595.727059c2.288941 0 3.463529-0.451765 4.156235-1.144471 1.957647 0.391529 3.794824 1.144471 5.842824 1.144471 16.564706 0 30.027294-13.131294 30.027294-29.304471a29.696 29.696 0 0 0-30.027294-29.30447c-2.409412 0-4.517647 0.813176-6.806589 1.325176a4.096 4.096 0 0 0-3.19247-1.325176H215.582118C171.429647 135.529412 135.529412 170.586353 135.529412 213.684706v566.543059c0 43.098353 35.900235 78.155294 80.052706 78.155294h500.224c44.152471 0 80.022588-35.056941 80.022588-78.155294V467.636706c0-2.529882-1.686588-3.794824-4.246588-4.367059z m56.621176-318.283294a30.539294 30.539294 0 0 0-42.375529 2.620235L342.949647 660.720941a28.822588 28.822588 0 0 0 2.680471 41.35153 30.539294 30.539294 0 0 0 42.375529-2.620236l462.908235-513.084235a28.912941 28.912941 0 0 0-2.710588-41.381647z" p-id="31485" fill="#515151"></path></svg>