<?xml version="1.0" standalone="no"?><!DOCTYPE svg PUBLIC "-//W3C//DTD SVG 1.1//EN" "http://www.w3.org/Graphics/SVG/1.1/DTD/svg11.dtd"><svg t="1586843958337" class="icon" viewBox="0 0 1024 1024" version="1.1" xmlns="http://www.w3.org/2000/svg" p-id="2312" xmlns:xlink="http://www.w3.org/1999/xlink" width="48" height="48"><defs><style type="text/css"></style></defs><path d="M887.799992 123.242905c-21.461801 0-38.875402 17.413602-38.875402 38.875402l0 108.199281C771.729439 162.372088 647.609561 97.325629 512 97.325629c-228.647537 0-414.676417 186.025811-414.676417 414.676417s186.02888 414.673347 414.676417 414.673347c168.537508 0 319.054593-100.68105 383.417483-256.487605 4.100388-9.924024 3.773953-20.552082-0.023536-29.713742-3.796466-9.210779-11.136641-16.957207-21.083178-21.057595-9.895371-4.102435-20.523429-3.796466-29.713742 0.025583-9.185196 3.823072-16.929578 11.162224-21.055548 21.084201-52.292993 126.600373-174.58934 208.398354-311.540456 208.398354-185.7751 0-336.924589-151.146419-336.924589-336.921519s151.149489-336.924589 336.924589-336.924589c116.272143 0 222.118843 58.897412 283.773042 155.503657L680.461783 330.582137c-21.461801 0-38.875402 17.413602-38.875402 38.875402 0 21.459754 17.413602 38.875402 38.875402 38.875402l207.338209 0c21.461801 0 38.875402-17.416671 38.875402-38.875402L926.675394 162.118308C926.675394 140.656507 909.261793 123.242905 887.799992 123.242905z" p-id="2313" fill="#515151"></path></svg>