<?xml version="1.0" standalone="no"?><!DOCTYPE svg PUBLIC "-//W3C//DTD SVG 1.1//EN" "http://www.w3.org/Graphics/SVG/1.1/DTD/svg11.dtd"><svg t="1586770438497" class="icon" viewBox="0 0 1024 1024" version="1.1" xmlns="http://www.w3.org/2000/svg" p-id="12996" width="32" height="32" xmlns:xlink="http://www.w3.org/1999/xlink"><defs><style type="text/css"></style></defs><path d="M689.25 128.13c16.1 0 32.26 1.91 47.95 5.62l-94.82 94.53c-6.5 6.48-9.34 15.77-7.52 24.76l19.44 96.93c2.18 10.86 10.69 19.34 21.57 21.5l97.23 19.4c1.8 0.36 3.61 0.54 5.41 0.54 7.22 0 14.22-2.85 19.43-8.04l93.28-92.98c14.82 67.51-5.22 138.2-55.73 188.56-38.86 38.73-90.56 60.07-145.54 60.07-29.01 0-57.12-5.89-83.55-17.51a27.51 27.51 0 0 0-30.54 5.7L221.89 880.06c-10.4 10.36-24.2 16.07-38.9 16.07-14.69 0-28.5-5.71-38.9-16.07-10.38-10.35-16.1-24.12-16.1-38.77 0-14.65 5.72-28.41 16.1-38.77l352.99-351.87a27.336 27.336 0 0 0 5.52-30.87c-36.12-77.98-19.57-171.07 41.18-231.63 38.82-38.71 90.49-60.02 145.47-60.02m0-64c-72.03 0-139.74 27.95-190.66 78.69-73.51 73.28-97.71 182.82-63.88 279.64L98.9 757.2c-22.53 22.49-34.91 52.34-34.91 84.1 0 31.78 12.4 61.64 34.91 84.08 22.5 22.42 52.36 34.75 84.1 34.75 31.73 0 61.58-12.33 84.06-34.72l337.25-336.18c27.52 9.16 56.23 13.8 85.64 13.8 72.03 0 139.76-27.96 190.71-78.73 65.47-65.28 92.78-157.84 73.07-247.62a64.003 64.003 0 0 0-62.51-50.28c-16.7 0-33.02 6.54-45.19 18.67l-79.49 79.24-54.29-10.83-10.78-53.73 80.91-80.66a64 64 0 0 0 16.39-62.77 64.009 64.009 0 0 0-46.87-44.85c-20.61-4.88-41.69-7.34-62.65-7.34z" p-id="12997" fill="#515151"></path></svg>