<?xml version="1.0" standalone="no"?><!DOCTYPE svg PUBLIC "-//W3C//DTD SVG 1.1//EN" "http://www.w3.org/Graphics/SVG/1.1/DTD/svg11.dtd"><svg t="1586929834379" class="icon" viewBox="0 0 1024 1024" version="1.1" xmlns="http://www.w3.org/2000/svg" p-id="19042" xmlns:xlink="http://www.w3.org/1999/xlink" width="48" height="48"><defs><style type="text/css"></style></defs><path d="M887.466667 247.466667L554.666667 55.466667c-25.6-17.066667-59.733333-17.066667-85.333334 0L136.533333 247.466667c-25.6 17.066667-42.666667 42.666667-42.666666 72.533333v384c0 29.866667 17.066667 59.733333 42.666666 72.533333l337.066667 192c25.6 17.066667 59.733333 17.066667 85.333333 0l337.066667-192c25.6-17.066667 42.666667-42.666667 42.666667-72.533333v-384c-8.533333-29.866667-25.6-59.733333-51.2-72.533333z m-21.333334 456.533333c0 4.266667-4.266667 12.8-8.533333 12.8l-337.066667 192c-4.266667 4.266667-12.8 4.266667-17.066666 0l-337.066667-192c-4.266667-4.266667-8.533333-8.533333-8.533333-12.8v-384c0-4.266667 4.266667-12.8 8.533333-12.8l337.066667-192c4.266667-4.266667 12.8-4.266667 17.066666 0l337.066667 192c4.266667 4.266667 8.533333 8.533333 8.533333 12.8v384zM512 473.6L260.266667 324.266667c-12.8-8.533333-34.133333 0-46.933334 12.8-8.533333 17.066667-4.266667 38.4 12.8 46.933333l256 149.333333v294.4c0 17.066667 17.066667 34.133333 34.133334 34.133334s34.133333-17.066667 34.133333-34.133334v-294.4l247.466667-145.066666c17.066667-8.533333 21.333333-29.866667 12.8-46.933334-12.8-17.066667-34.133333-21.333333-51.2-12.8L512 473.6z" p-id="19043" fill="#dbdbdb"></path></svg>