<svg t="1586942589030" class="icon" viewBox="0 0 1070 1024" version="1.1" xmlns="http://www.w3.org/2000/svg" p-id="22905" width="48" height="48"><path d="M446.503073 107.462937l308.04389 169.461194a30.878497 30.878497 0 0 1 16.02594 27.049564V640.27141a30.878497 30.878497 0 0 1-16.02594 27.049564l-308.074769 169.461194a30.878497 30.878497 0 0 1-29.766871 0l-308.074769-169.461194A30.878497 30.878497 0 0 1 92.635492 640.302289V304.004573a30.878497 30.878497 0 0 1 15.995062-27.049563l308.074769-169.461194a30.878497 30.878497 0 0 1 29.766871 0z m-14.914314 62.28193L154.361609 322.192008v299.861089l277.22715 152.447142 277.196271-152.447142V322.192008l-277.196271-152.447141z" p-id="22906" fill="#dbdbdb"></path><path d="M718.974934 267.29004l28.902274 54.593183-316.288449 167.423213L115.300309 321.883223l28.902274-54.593183 287.386176 152.138357z" p-id="22907" fill="#dbdbdb"></path><path d="M401.420467 454.382856h61.756994v319.592448h-61.756994z" p-id="22908" fill="#dbdbdb"></path></svg>