<?xml version="1.0" standalone="no"?><!DOCTYPE svg PUBLIC "-//W3C//DTD SVG 1.1//EN" "http://www.w3.org/Graphics/SVG/1.1/DTD/svg11.dtd"><svg t="1586928682465" class="icon" viewBox="0 0 1024 1024" version="1.1" xmlns="http://www.w3.org/2000/svg" p-id="8045" xmlns:xlink="http://www.w3.org/1999/xlink" width="48" height="48"><defs><style type="text/css"></style></defs><path d="M509.610667 760.490667c0 17.706667 12.202667 30.549333 29.013333 30.549333h326.613333c16.810667 0 29.013333-12.842667 29.013334-30.549333s-12.202667-30.506667-29.013334-30.506667h-326.613333c-16.810667 0-29.013333 12.8-29.013333 30.506667z m0-515.968c0 17.706667 12.202667 30.549333 29.013333 30.549333h326.613333c16.810667 0 29.013333-12.842667 29.013334-30.549333s-12.202667-30.506667-29.013334-30.506667h-326.613333c-16.810667 0-29.013333 12.8-29.013333 30.506667z m1.877333 258.005333c0-17.706667-12.16-30.549333-28.928-30.549333H156.885333c-16.725333 0-28.885333 12.842667-28.885333 30.549333 0 17.664 12.16 30.506667 28.885333 30.506667h325.674667c16.768 0 28.928-12.8 28.928-30.506667z m-38.656 257.962667a116.650667 116.650667 0 0 0-116.48-116.522667c-52.650667 0-98.133333 35.541333-112.128 86.016H158.549333a29.525333 29.525333 0 0 0-30.549333 30.506667c0 17.706667 12.8 30.549333 30.549333 30.549333h85.674667a116.650667 116.650667 0 0 0 112.085333 85.973333 116.650667 116.650667 0 0 0 116.522667-116.48z m-116.48 55.466666c-30.634667 0-55.466667-24.874667-55.466667-55.466666 0-30.592 24.832-55.466667 55.466667-55.466667 30.549333 0 55.466667 24.874667 55.466667 55.466667 0 30.592-24.917333 55.466667-55.466667 55.466666z m116.48-571.434666A116.650667 116.650667 0 0 0 356.352 128c-52.650667 0-98.133333 35.541333-112.128 86.016H158.549333A29.525333 29.525333 0 0 0 128 244.48c0 17.706667 12.8 30.549333 30.549333 30.549333h85.674667A116.650667 116.650667 0 0 0 356.266667 361.045333a116.650667 116.650667 0 0 0 116.522666-116.48z m-116.48 55.466666c-30.634667 0-55.466667-24.874667-55.466667-55.466666 0-30.592 24.832-55.466667 55.466667-55.466667 30.549333 0 55.466667 24.874667 55.466667 55.466667 0 30.592-24.917333 55.466667-55.466667 55.466666z m421.632 233.045334h85.717333a29.525333 29.525333 0 0 0 30.506667-30.506667 29.525333 29.525333 0 0 0-30.506667-30.549333h-85.717333a116.650667 116.650667 0 0 0-112.085333-85.973334 116.650667 116.650667 0 0 0-116.522667 116.48 116.650667 116.650667 0 0 0 116.522667 116.565334c52.608 0 98.133333-35.541333 112.085333-86.016z m-112.085333 24.96c-30.592 0-55.466667-24.917333-55.466667-55.466667 0-30.592 24.874667-55.466667 55.466667-55.466667 30.592 0 55.466667 24.874667 55.466666 55.466667 0 30.549333-24.874667 55.466667-55.466666 55.466667z" p-id="8046" fill="#dbdbdb"></path></svg>