<svg t="1586939343835" class="icon" viewBox="0 0 1024 1024" version="1.1" xmlns="http://www.w3.org/2000/svg" p-id="22080" width="48" height="48"><path d="M504.8 659.936a144.32 144.32 0 1 0-0.032-288.64 144.32 144.32 0 0 0 0.032 288.64z m0 48a192.32 192.32 0 0 1-192.32-192.32 192.32 192.32 0 1 1 192.32 192.32z m397.248-271.968l4.736 12.544c1.76 4.64 4.192 12.224 6.624 21.76 3.712 14.56 6.112 29.184 6.528 43.2l0.064 4.256c0 18.88-2.432 37.088-6.496 54.016a175.52 175.52 0 0 1-6.88 22.72l-4.928 12.352-97.152 17.76c-3.52 9.28-7.552 18.4-12.192 27.68l46.176 77.184-6.016 11.84a324.256 324.256 0 0 1-23.264 38.176 191.36 191.36 0 0 1-18.048 22.048c-3.296 3.392-6.72 6.656-10.304 9.792-18.624 16.448-37.152 26.912-50.304 32.32l-12.192 4.96-71.264-50.464a311.04 311.04 0 0 1-42.72 17.6l-17.6 85.536-11.936 4.8c-4.64 1.92-12.224 4.48-21.856 7.04a190.912 190.912 0 0 1-48.64 6.912c-20.16 0-38.72-2.752-55.264-7.36a134.08 134.08 0 0 1-22.4-8.032l-10.624-5.216-17.44-86.752a326.72 326.72 0 0 1-34.816-15.136l-74.944 47.776-12.032-5.76a270.88 270.88 0 0 1-38.72-23.296 174.496 174.496 0 0 1-20.48-17.184 181.664 181.664 0 0 1-19.2-22.912 309.152 309.152 0 0 1-23.168-37.952l-6.336-12.544 49.76-74.176a292.704 292.704 0 0 1-11.904-27.392l-84.256-18.432-5.024-10.656a124.672 124.672 0 0 1-7.168-21.12 210.976 210.976 0 0 1-6.368-52.608c0-18.4 2.656-35.968 7.136-52.288a152 152 0 0 1 7.584-21.984l4.928-10.784 75.968-17.312c5.152-16.96 11.776-33.504 19.744-49.504L170.304 297.184l5.344-12.16a217.152 217.152 0 0 1 42.816-62.08c5.6-5.6 11.936-10.976 18.816-16.16a260.352 260.352 0 0 1 40-24.672l12.032-5.824 75.744 48.224c10.88-5.376 22.08-10.08 33.6-14.144l17.792-89.344 12.96-4.512c4.768-1.664 12.576-4 22.56-6.304a222.368 222.368 0 0 1 50.56-6.208 218.912 218.912 0 0 1 72.192 12.832l12.096 4.8 17.6 85.664A300.48 300.48 0 0 1 645.824 224l71.104-51.2 12.384 5.184a217.12 217.12 0 0 1 63.232 42.112c3.84 3.776 7.488 7.744 10.976 11.904 15.36 18.368 24.96 36.608 29.728 49.6l3.936 10.752-45.376 76.16c8.064 16.096 14.784 32.8 20 49.856l90.24 17.6zM274.336 797.664l23.264-1.408a183.904 183.904 0 0 1-11.456-6.144l-11.84 7.552z m592.48-237.12a184 184 0 0 0 5.184-42.816l-0.032-2.816a154.816 154.816 0 0 0-6.208-37.12l-92.608-18.048-3.744-14.784a272.32 272.32 0 0 0-26.08-65.504l-6.72-12.064 47.04-78.976a142.848 142.848 0 0 0-16.96-25.6 118.752 118.752 0 0 0-19.264-18.464 182.816 182.816 0 0 0-25.056-16.32l-72.8 52.416-13.28-7.328a255.616 255.616 0 0 0-58.656-23.68l-14.368-3.808-18.016-87.808a171.52 171.52 0 0 0-42.88-5.824 176.096 176.096 0 0 0-44.352 6.112l-17.856 89.44-13.76 4.16a264.352 264.352 0 0 0-50.976 21.536l-12.48 6.848L286.72 231.552a210.88 210.88 0 0 0-20.544 13.536 131.168 131.168 0 0 0-22.976 22.016c-6.72 8.16-12.672 17.024-17.696 25.888l49.92 73.568-7.168 12.896a272.48 272.48 0 0 0-26.08 65.504l-3.616 14.272-79.936 18.24a150.688 150.688 0 0 0-6.624 43.808 163.2 163.2 0 0 0 5.44 42.88l86.304 18.816 4.224 13.216c4.896 15.424 11.264 29.952 19.648 45.216l7.04 12.8-49.856 74.336c3.968 6.72 8.224 13.376 12.672 19.552 4.8 6.72 9.568 12.48 13.984 16.864 4.096 4.064 9.12 8.256 14.88 12.448 6.272 4.512 13.024 8.8 19.84 12.704l75.712-48.32 12.48 6.976c17.248 9.6 34.912 17.28 52.16 22.656l13.632 4.224 18.048 89.664 3.712 1.088c12.576 3.52 26.848 5.6 42.432 5.6a144.576 144.576 0 0 0 40.832-6.528l18.08-87.936 14.272-3.84a264.576 264.576 0 0 0 59.776-24.64l13.184-7.36 73.12 51.776a153.76 153.76 0 0 0 33.088-25.376c4.256-4.384 8.8-10.016 13.44-16.512 4.64-6.528 9.152-13.6 13.28-20.704l-46.24-77.376 6.624-12.064a248.96 248.96 0 0 0 19.84-45.216l4.352-13.76 97.792-17.856c0.32-1.28 0.704-2.656 1.024-4.096z" p-id="22081" fill="#dbdbdb"></path></svg>