<svg t="1586938736825" class="icon" viewBox="0 0 1024 1024" version="1.1" xmlns="http://www.w3.org/2000/svg" p-id="20561" width="48" height="48"><path d="M798.6 337.8c-1.4-5.8-4-10-7-13.6l-167.4-183.4c-3.8-4.2-8.2-6.2-13.2-8.8-5.8-3-12.2-3.2-18.8-3.2L272.4 128.8c-24.8 0-47.4 19.2-47.4 45.8l0 670.4c0 26.8 22.6 51.8 47.4 51.8l486.2 0c24.8 0 42.4-25 42.4-51.8L801 356.8C801 349.6 800.2 344.4 798.6 337.8zM611 222l116 127-116 0L611 222zM289 833l0-640 258 0 0 163.4c0 29.6 26.8 56.6 56.2 56.6l133.8 0 0 420L289 833z" p-id="20562" fill="#dbdbdb"></path></svg>